<?xml version="1.0" standalone="no"?><!DOCTYPE svg PUBLIC "-//W3C//DTD SVG 1.1//EN" "http://www.w3.org/Graphics/SVG/1.1/DTD/svg11.dtd"><svg t="1708683272830" class="icon" viewBox="0 0 1024 1024" version="1.1" xmlns="http://www.w3.org/2000/svg" p-id="15179" xmlns:xlink="http://www.w3.org/1999/xlink" width="200" height="200"><path d="M761.732808 1023.997944H252.902793a185.601153 185.601153 0 0 1-184.728908-185.040424V330.189809a46.228954 46.228954 0 1 1 92.457909 0v508.767711a92.831728 92.831728 0 0 0 92.520212 92.520212h508.830014a92.831728 92.831728 0 0 0 92.520213-92.520212V330.189809a46.228954 46.228954 0 1 1 92.457908 0v508.767711a184.105876 184.105876 0 0 1-184.978121 185.040424z" fill="#388CEB" p-id="15180"></path><path d="M974.498144 401.838458a46.914289 46.914289 0 0 1-25.481998-6.915653c-157.253209-101.741082-367.588721-242.982375-439.361976-291.39194-71.710952 48.534172-279.865853 187.283338-434.813845 289.086723a46.851986 46.851986 0 0 1-50.901693-78.626604c189.650859-122.612645 457.928322-302.980331 460.23354-305.285549a41.556216 41.556216 0 0 1 50.901692 0c2.305217 2.305217 275.193115 184.978121 464.843974 307.590766a47.475018 47.475018 0 0 1 13.893608 64.732997 48.347262 48.347262 0 0 1-39.313302 20.80926z" fill="#388CEB" p-id="15181"></path><path d="M692.327073 746.437308H322.308528a46.291258 46.291258 0 1 1 0-92.520212h370.018545a46.291258 46.291258 0 0 1 0 92.520212z" fill="#E78E00" p-id="15182"></path></svg>