<?xml version="1.0" standalone="no"?><!DOCTYPE svg PUBLIC "-//W3C//DTD SVG 1.1//EN" "http://www.w3.org/Graphics/SVG/1.1/DTD/svg11.dtd"><svg height="954" node-id="1" sillyvg="true" template-height="954" template-width="1380" version="1.1" viewBox="0 0 1380 954" width="1380" xmlns="http://www.w3.org/2000/svg" xmlns:xlink="http://www.w3.org/1999/xlink"><defs node-id="82"><linearGradient gradientUnits="userSpaceOnUse" id="linear-gradient" node-id="5" spreadMethod="pad" x1="660.06" x2="991.7" y1="997.03" y2="837.84"><stop offset="0" stop-color="#9dcef3"></stop><stop offset="1" stop-color="#ddeffd"></stop></linearGradient><linearGradient gradientUnits="userSpaceOnUse" id="linear-gradient-2" node-id="8" spreadMethod="pad" x1="342.75" x2="730.75" y1="811.35" y2="827.35"><stop offset="0" stop-color="#9dcef3"></stop><stop offset="1" stop-color="#ddeffd"></stop></linearGradient><linearGradient gradientUnits="userSpaceOnUse" id="linear-gradient-3" node-id="9" spreadMethod="pad" x1="1112.84" x2="1043.48" y1="951.84" y2="771.13"><stop offset="0" stop-color="#90bfa5"></stop><stop offset="1" stop-color="#c4dfcc"></stop></linearGradient><linearGradient gradientUnits="userSpaceOnUse" id="linear-gradient-4" node-id="12" spreadMethod="pad" x1="971" x2="1097.18" y1="905.42" y2="905.42"><stop offset="0" stop-color="#90bfa5"></stop><stop offset="1" stop-color="#c4dfcc"></stop></linearGradient><linearGradient gradientUnits="userSpaceOnUse" id="linear-gradient-5" node-id="13" spreadMethod="pad" x1="1121.66" x2="1257.58" y1="891.81" y2="891.81"><stop offset="0" stop-color="#90bfa5"></stop><stop offset="1" stop-color="#c4dfcc"></stop></linearGradient><linearGradient gradientUnits="userSpaceOnUse" id="linear-gradient-6" node-id="14" spreadMethod="pad" x1="297.58" x2="229.58" y1="953.35" y2="728.35"><stop offset="0" stop-color="#90bfa5"></stop><stop offset="1" stop-color="#c4dfcc"></stop></linearGradient><linearGradient gradientUnits="userSpaceOnUse" id="linear-gradient-7" node-id="15" spreadMethod="pad" x1="105.18" x2="255.96" y1="896.63" y2="896.63"><stop offset="0" stop-color="#90bfa5"></stop><stop offset="1" stop-color="#c4dfcc"></stop></linearGradient><linearGradient gradientUnits="userSpaceOnUse" id="linear-gradient-8" node-id="16" spreadMethod="pad" x1="372.96" x2="352.96" y1="937.69" y2="816.69"><stop offset="0" stop-color="#90bfa5"></stop><stop offset="1" stop-color="#c4dfcc"></stop></linearGradient><linearGradient gradientUnits="userSpaceOnUse" id="linear-gradient-9" node-id="17" spreadMethod="pad" x1="1109.49" x2="1376.18" y1="596.44" y2="596.44"><stop offset="0" stop-color="#9dcef3"></stop><stop offset="1" stop-color="#ddeffd"></stop></linearGradient><linearGradient gradientUnits="userSpaceOnUse" id="linear-gradient-10" node-id="18" spreadMethod="pad" x1="408.96" x2="32.25" y1="330.9" y2="339.36"><stop offset="0" stop-color="#9dcef3"></stop><stop offset="1" stop-color="#ddeffd"></stop></linearGradient><linearGradient gradientUnits="userSpaceOnUse" id="linear-gradient-11" node-id="19" spreadMethod="pad" x1="964" x2="1380.18" y1="324.76" y2="324.76"><stop offset="0" stop-color="#ed6263"></stop><stop offset="1" stop-color="#ffa9a9"></stop></linearGradient><linearGradient gradientUnits="userSpaceOnUse" id="linear-gradient-12" node-id="22" spreadMethod="pad" x1="1001.67" x2="1183.27" y1="188.3" y2="188.3"><stop offset="0" stop-color="#ed6263"></stop><stop offset="1" stop-color="#ffa9a9"></stop></linearGradient><linearGradient gradientUnits="userSpaceOnUse" id="linear-gradient-13" node-id="23" spreadMethod="pad" x1="948.05" x2="594.01" y1="564.5" y2="804.53"><stop offset="0" stop-color="#ed6263"></stop><stop offset="1" stop-color="#ffa9a9"></stop></linearGradient><linearGradient gradientUnits="userSpaceOnUse" id="linear-gradient-14" node-id="24" spreadMethod="pad" x1="572.24" x2="169.68" y1="507.62" y2="752.04"><stop offset="0" stop-color="#ed6263"></stop><stop offset="0.19" stop-color="#f07071"></stop><stop offset="1" stop-color="#ffa9a9"></stop></linearGradient><linearGradient gradientUnits="userSpaceOnUse" id="linear-gradient-15" node-id="28" spreadMethod="pad" x1="1022.22" x2="572.18" y1="207.9" y2="96.89"><stop offset="0" stop-color="#ed6263"></stop><stop offset="1" stop-color="#ffa9a9"></stop></linearGradient><linearGradient gradientUnits="userSpaceOnUse" id="linear-gradient-16" node-id="29" spreadMethod="pad" x1="468" x2="681" y1="462.73" y2="462.73"><stop offset="0" stop-color="#002452"></stop><stop offset="1" stop-color="#001328"></stop></linearGradient><linearGradient gradientUnits="userSpaceOnUse" id="linear-gradient-17" node-id="32" spreadMethod="pad" x1="603.04" x2="1056.22" y1="386.73" y2="386.73"><stop offset="0" stop-color="#404aa9"></stop><stop offset="1" stop-color="#7284d3"></stop></linearGradient><linearGradient gradientUnits="userSpaceOnUse" id="linear-gradient-18" node-id="35" spreadMethod="pad" x1="59.44" x2="198.83" y1="813.11" y2="813.11"><stop offset="0" stop-color="#002452"></stop><stop offset="1" stop-color="#001328"></stop></linearGradient><linearGradient gradientUnits="userSpaceOnUse" id="linear-gradient-19" node-id="36" spreadMethod="pad" x1="498.09" x2="628.45" y1="788.69" y2="788.69"><stop offset="0" stop-color="#002452"></stop><stop offset="1" stop-color="#001328"></stop></linearGradient><linearGradient gradientUnits="userSpaceOnUse" id="linear-gradient-20" node-id="37" spreadMethod="pad" x1="1189.45" x2="1063.45" y1="173.44" y2="121.44"><stop offset="0" stop-color="#002452"></stop><stop offset="1" stop-color="#001328"></stop></linearGradient></defs><g node-id="307"><g node-id="308"><path d="M 1281.22 952.23 L 102.59 952.23 C 102.59 952.23 -10.67 947.30 0.82 809.41 C 0.82 809.41 63.20 362.91 491.64 287.41 C 491.64 287.41 637.74 261.15 732.95 392.47 C 732.95 392.47 826.52 507.38 975.90 466.34 C 975.90 466.34 1250.03 382.62 1338.68 771.67 C 1338.68 771.66 1369.87 904.62 1281.22 952.23 Z" fill="#e6f0f5" fill-rule="nonzero" group-id="1,2" node-id="210" stroke="none" target-height="691.07996" target-width="1380.54" target-x="-10.67" target-y="261.15"></path></g><g node-id="309"><path d="M 1127.00 952.23 L 587.59 952.23 C 587.59 952.23 678.78 766.00 744.00 790.29 C 744.00 790.29 790.43 821.29 766.11 868.77 C 766.11 868.77 882.17 775.92 857.85 889.77 C 857.85 889.77 929.70 844.45 933.02 880.93 C 933.02 880.93 1109.88 792.50 1066.77 896.40 C 1066.77 896.40 1169.57 874.30 1127.00 952.23 Z" fill="url(#linear-gradient)" fill-rule="nonzero" group-id="1,3" node-id="214" stroke="none" target-height="186.22998" target-width="581.9799" target-x="587.59" target-y="766"></path><path d="M 306.00 952.23 L 746.90 952.23 C 746.90 952.23 737.45 849.60 655.07 869.18 C 655.07 869.18 684.78 746.29 581.48 803.01 C 581.48 803.01 609.16 682.15 513.28 748.32 C 513.28 748.32 537.59 556.56 388.37 794.23 C 388.37 794.23 342.46 734.81 306.00 952.23 Z" fill="url(#linear-gradient-2)" fill-rule="nonzero" group-id="1,3" node-id="216" stroke="none" target-height="395.66998" target-width="440.90002" target-x="306" target-y="556.56"></path></g><g node-id="310"><path d="M 1140.10 902.34 L 1140.10 902.34 C 1139.95 904.29 1139.70 906.23 1139.36 908.15 C 1139.36 908.15 1136.36 937.34 1127.50 951.82 L 1084.50 951.82 L 1045.93 903.48 C 1045.93 903.48 1037.71 892.28 1036.21 879.42 L 1036.21 879.42 C 1035.79 876.14 1035.92 872.82 1036.59 869.59 C 1036.59 869.59 1038.69 853.50 1022.59 839.21 C 1008.59 826.79 996.23 796.03 1036.59 765.60 C 1046.59 758.02 1076.52 744.18 1086.71 775.10 C 1091.84 790.63 1091.94 792.86 1089.18 826.21 C 1088.44 835.05 1095.95 852.07 1112.11 855.57 C 1125.90 858.59 1142.19 876.00 1140.10 902.34 Z" fill="url(#linear-gradient-3)" fill-rule="nonzero" group-id="1,4" node-id="220" stroke="none" target-height="207.64001" target-width="145.95996" target-x="996.23" target-y="744.18"></path><path d="M 1103.15 953.70 C 1061.32 899.09 1046.29 787.37 1046.15 786.25 L 1049.15 785.86 C 1049.30 786.97 1064.22 897.86 1105.56 951.86 Z" fill="#ffffff" fill-rule="nonzero" group-id="1,4" node-id="222" stroke="none" target-height="167.84003" target-width="59.410034" target-x="1046.15" target-y="785.86"></path><path d="M 1097.18 951.83 L 1034.00 951.83 C 1015.82 946.18 1017.32 934.10 1016.67 926.83 C 1015.38 912.43 998.29 913.07 990.96 911.64 C 965.66 906.70 969.22 881.91 975.77 874.24 C 1000.46 845.33 1029.39 864.08 1035.37 877.75 C 1035.62 878.34 1035.89 878.91 1036.16 879.46 L 1036.16 879.46 C 1043.76 894.91 1055.23 892.94 1055.23 892.94 C 1090.17 880.20 1096.33 940.40 1097.18 951.83 Z" fill="url(#linear-gradient-4)" fill-rule="nonzero" group-id="1,4" node-id="224" stroke="none" target-height="106.5" target-width="131.52008" target-x="965.66" target-y="845.33"></path><path d="M 1243.36 877.72 C 1236.59 882.91 1219.99 890.57 1222.36 904.59 C 1222.36 904.59 1226.66 936.82 1190.98 951.83 L 1121.69 951.83 L 1124.20 946.66 C 1124.20 946.66 1128.00 921.78 1140.13 902.35 L 1140.13 902.35 C 1147.04 891.29 1156.64 881.99 1169.78 880.07 C 1175.30 879.26 1182.63 880.07 1186.14 864.88 C 1186.14 864.88 1187.00 820.59 1234.05 834.50 C 1244.62 837.62 1275.49 853.07 1243.36 877.72 Z" fill="url(#linear-gradient-5)" fill-rule="nonzero" group-id="1,4" node-id="226" stroke="none" target-height="131.23999" target-width="153.80005" target-x="1121.69" target-y="820.59"></path><path d="M 1079.86 952.65 C 1053.92 912.82 1000.19 886.34 999.65 886.08 L 1000.97 883.38 C 1001.51 883.65 1055.97 910.49 1082.38 951.01 Z" fill="#ffffff" fill-rule="nonzero" group-id="1,4" node-id="228" stroke="none" target-height="69.27002" target-width="82.72998" target-x="999.65" target-y="883.38"></path><path d="M 1157.07 952.19 L 1154.38 950.86 C 1156.01 947.55 1194.77 869.37 1232.21 851.86 L 1233.48 854.58 C 1197.00 871.64 1157.46 951.38 1157.07 952.19 Z" fill="#ffffff" fill-rule="nonzero" group-id="1,4" node-id="230" stroke="none" target-height="100.33002" target-width="79.099976" target-x="1154.38" target-y="851.86"></path></g><g node-id="311"><path d="M 326.67 910.92 C 325.92 913.05 325.05 915.20 324.04 917.38 C 324.04 917.38 316.92 936.11 307.12 951.23 L 249.50 951.23 L 247.62 950.73 L 211.00 892.23 C 211.00 892.23 202.91 883.30 206.00 868.23 C 206.00 868.23 208.00 861.23 217.75 841.65 C 222.18 832.75 225.08 823.81 210.93 802.47 C 209.82 800.79 208.82 799.04 207.93 797.23 C 198.24 777.29 198.66 742.88 249.53 722.23 C 263.38 716.61 301.94 709.85 304.19 748.47 C 305.19 765.85 304.86 769.74 295.19 797.24 C 294.06 800.46 292.80 804.00 291.40 807.92 C 287.85 817.85 291.27 839.69 308.76 848.65 C 323.75 856.33 337.13 881.28 326.67 910.92 Z" fill="url(#linear-gradient-6)" fill-rule="nonzero" group-id="1,5" node-id="234" stroke="none" target-height="241.38" target-width="138.89" target-x="198.24" target-y="709.85"></path><path d="M 268.79 951.49 C 237.48 876.05 254.37 750.15 254.55 748.89 L 257.55 749.30 C 257.38 750.55 240.55 875.66 271.55 950.30 Z" fill="#ffffff" fill-rule="nonzero" group-id="1,5" node-id="236" stroke="none" target-height="202.59998" target-width="34.069992" target-x="237.48" target-y="748.89"></path><path d="M 256.00 951.65 L 180.87 951.65 C 159.27 944.94 161.05 930.58 160.27 921.90 C 158.74 904.79 138.43 905.54 129.72 903.90 C 99.65 898.03 102.00 870.28 111.72 859.46 C 141.82 825.77 175.44 847.38 182.54 863.63 C 182.85 864.33 183.17 865.00 183.49 865.63 L 183.49 865.63 C 192.49 883.98 206.15 881.63 206.15 881.63 C 247.62 866.53 255.00 938.07 256.00 951.65 Z" fill="url(#linear-gradient-7)" fill-rule="nonzero" group-id="1,5" node-id="238" stroke="none" target-height="125.880005" target-width="156.35" target-x="99.65" target-y="825.77"></path><path d="M 429.68 863.58 C 421.63 869.75 401.91 878.85 404.68 895.51 C 404.68 895.51 409.78 933.81 367.38 951.65 L 285.00 951.65 L 288.00 945.51 C 288.00 945.51 292.51 915.94 306.93 892.84 L 306.93 892.84 C 315.13 879.70 326.54 868.65 342.15 866.36 C 348.72 865.36 357.43 866.36 361.60 848.31 C 361.60 848.31 362.60 795.68 418.54 812.20 C 431.18 815.92 467.87 834.29 429.68 863.58 Z" fill="url(#linear-gradient-8)" fill-rule="nonzero" group-id="1,5" node-id="240" stroke="none" target-height="155.97003" target-width="182.87" target-x="285" target-y="795.68"></path><path d="M 235.61 952.46 C 204.73 905.06 140.82 873.57 140.18 873.26 L 141.49 870.56 C 142.14 870.88 206.80 902.74 238.13 950.83 Z" fill="#ffffff" fill-rule="nonzero" group-id="1,5" node-id="242" stroke="none" target-height="81.900024" target-width="97.95001" target-x="140.18" target-y="870.56"></path><path d="M 326.87 952.00 L 324.18 950.68 C 326.12 946.74 372.18 853.92 416.55 833.10 L 417.82 835.82 C 374.36 856.14 327.35 951.00 326.87 952.00 Z" fill="#ffffff" fill-rule="nonzero" group-id="1,5" node-id="244" stroke="none" target-height="118.900024" target-width="93.640015" target-x="324.18" target-y="833.1"></path></g><g node-id="312"><path d="M 1109.49 638.38 L 1376.18 638.38 C 1376.18 638.38 1364.50 594.14 1328.86 608.27 C 1328.86 608.27 1323.22 565.46 1285.17 554.76 C 1275.45 552.10 1265.21 551.94 1255.42 554.32 C 1238.89 558.21 1208.04 569.52 1188.15 601.51 C 1188.15 601.51 1162.95 580.62 1139.60 618.72 C 1139.60 618.72 1111.95 615.03 1109.49 640.23" fill="url(#linear-gradient-9)" fill-rule="nonzero" group-id="1,6" node-id="248" stroke="none" target-height="88.28601" target-width="266.69006" target-x="1109.49" target-y="551.944"></path><path d="M 39.00 389.23 L 389.25 389.23 C 389.25 389.23 373.92 331.12 327.11 349.68 C 327.11 349.68 319.70 293.45 269.72 279.40 C 256.96 275.90 243.51 275.70 230.65 278.82 C 208.94 283.93 168.42 298.82 142.30 340.82 C 142.30 340.82 109.21 313.39 78.54 363.42 C 78.54 363.42 42.23 358.58 39.00 391.67" fill="url(#linear-gradient-10)" fill-rule="nonzero" group-id="1,6" node-id="250" stroke="none" target-height="115.970276" target-width="350.25" target-x="39" target-y="275.69974"></path></g><g node-id="313"><path d="M 468.00 500.23 C 468.00 500.23 498.00 588.23 545.00 601.23 L 554.00 588.23 L 480.00 494.23 Z" fill="#0a0e1e" fill-rule="nonzero" group-id="1,7" node-id="254" stroke="none" target-height="106.99997" target-width="86" target-x="468" target-y="494.23"></path><path d="M 1377.80 159.64 L 1353.00 220.82 L 1314.14 291.94 L 1166.88 488.07 C 1157.94 499.98 1143.73 506.75 1128.86 506.20 C 1113.98 505.64 1100.31 497.84 1092.28 485.30 L 1018.69 370.46 L 964.00 285.12 L 1033.40 195.89 L 1071.90 266.79 L 1135.00 383.00 C 1135.89 382.11 1287.17 247.66 1287.17 247.66 C 1287.17 247.66 1292.80 212.89 1271.59 197.09 C 1271.59 197.09 1294.59 175.90 1306.59 215.69 L 1324.31 199.18 C 1324.31 199.18 1329.96 157.23 1347.36 156.45 C 1347.36 156.45 1351.54 142.94 1368.36 144.92 C 1369.49 144.12 1370.79 143.61 1372.16 143.43 C 1381.15 142.00 1381.88 151.54 1377.80 159.64 Z" fill="url(#linear-gradient-11)" fill-rule="nonzero" group-id="1,7" node-id="256" stroke="none" target-height="364.74908" target-width="417.88" target-x="964" target-y="142"></path><g node-id="314"><path d="M 1071.90 266.79 C 1066.53 313.26 1037.61 350.56 1018.69 370.46 L 964.00 285.12 L 1033.40 195.89 Z" fill="#000000" fill-opacity="0.2" fill-rule="nonzero" group-id="1,7,8" node-id="260" stroke="none" target-height="174.56999" target-width="107.900024" target-x="964" target-y="195.89"></path></g><path d="M 1032.28 269.23 L 1084.78 239.16 C 1084.78 239.16 1137.13 302.16 1183.27 174.38 L 1100.27 107.38 L 1053.27 165.06 L 1001.67 203.12 Z" fill="url(#linear-gradient-12)" fill-rule="nonzero" group-id="1,7" node-id="263" stroke="none" target-height="194.78" target-width="181.60004" target-x="1001.67" target-y="107.38"></path><path d="M 901.00 711.73 L 614.00 779.73 L 577.00 697.73 L 792.00 621.73 L 786.60 616.73 L 766.00 597.73 L 879.00 546.73 C 879.00 546.73 886.54 557.95 896.18 574.40 C 909.02 596.30 925.58 627.46 933.00 653.73 C 946.00 699.73 901.00 711.73 901.00 711.73 Z" fill="url(#linear-gradient-13)" fill-rule="nonzero" group-id="1,7" node-id="265" stroke="none" target-height="233" target-width="369" target-x="577" target-y="546.73"></path><path d="M 556.08 584.11 L 525.89 605.00 L 476.89 638.90 C 474.63 640.47 472.30 641.92 469.89 643.24 L 188.00 798.23 L 140.44 719.34 L 403.51 555.88 L 461.87 507.83 L 493.10 482.13 Z" fill="url(#linear-gradient-14)" fill-rule="nonzero" group-id="1,7" node-id="267" stroke="none" target-height="316.09998" target-width="415.64" target-x="140.44" target-y="482.13"></path><path d="M 556.08 584.11 L 525.89 605.00 C 509.39 557.49 474.66 520.40 461.89 507.84 L 493.12 482.14 Z" fill="#000000" fill-opacity="0.2" fill-rule="nonzero" group-id="1,7,9" node-id="271" stroke="none" target-height="122.859985" target-width="94.19" target-x="461.89" target-y="482.14"></path><path d="M 896.18 574.40 C 863.22 596.42 825.80 610.88 786.60 616.75 L 766.00 597.75 L 879.00 546.75 C 879.00 546.75 886.54 558.00 896.18 574.40 Z" fill="#000000" fill-opacity="0.2" fill-rule="nonzero" group-id="1,7,10" node-id="276" stroke="none" target-height="70" target-width="130.18" target-x="766" target-y="546.75"></path><path d="M 1050.50 270.23 L 902.50 349.23 L 892.22 331.23 L 830.50 223.23 L 866.73 190.79 L 887.50 172.19 L 887.77 171.94 L 887.07 170.84 L 830.57 82.06 L 676.14 97.70 L 661.89 118.89 L 626.09 170.68 C 613.24 151.68 634.59 127.23 634.59 127.23 L 610.49 123.23 L 553.70 142.89 C 550.30 143.96 546.65 142.23 545.33 138.91 C 544.02 135.60 545.49 131.83 548.70 130.28 L 585.24 113.61 L 530.15 119.76 C 526.45 120.17 523.02 117.76 522.15 114.14 C 521.73 112.13 522.14 110.04 523.29 108.35 C 524.44 106.65 526.23 105.49 528.25 105.14 L 581.00 95.24 L 533.00 91.94 C 529.45 91.76 526.60 88.95 526.37 85.41 C 526.19 81.74 528.95 78.58 532.61 78.26 L 580.84 74.00 L 547.50 66.87 C 546.06 66.56 544.80 65.69 544.02 64.44 C 543.23 63.19 542.98 61.68 543.33 60.25 C 544.02 57.62 546.51 55.87 549.22 56.10 L 581.92 58.34 L 618.46 53.00 L 655.57 50.84 L 848.37 2.00 C 872.39 -4.09 897.78 4.11 913.70 23.10 L 1013.50 142.23 L 1030.00 160.23 C 1078.00 194.23 1025.50 271.23 1025.50 271.23 Z" fill="url(#linear-gradient-15)" fill-rule="nonzero" group-id="1,7" node-id="279" stroke="none" target-height="353.31778" target-width="556.27094" target-x="521.72906" target-y="-4.0877647"></path><path d="M 681.00 513.73 L 545.00 600.73 C 537.88 578.57 527.06 557.78 513.00 539.23 C 499.49 521.61 468.00 499.73 468.00 499.73 L 556.00 428.73 C 556.00 428.73 589.00 340.23 678.00 324.73 Z" fill="url(#linear-gradient-16)" fill-rule="nonzero" group-id="1,7" node-id="281" stroke="none" target-height="275.99997" target-width="213" target-x="468" target-y="324.73"></path><path d="M 1038.00 166.73 L 1034.00 163.73 C 1034.00 163.73 1057.00 199.73 1025.00 240.73 C 1025.00 240.73 953.00 321.73 896.00 279.73 C 896.00 279.73 841.10 244.49 858.55 198.11 C 858.55 198.11 835.00 197.73 773.00 257.73 L 678.00 324.73 C 678.00 324.73 598.37 343.87 603.25 422.34 C 604.66 442.85 611.49 462.62 623.06 479.62 C 643.19 509.55 689.74 567.18 772.00 609.73 C 772.00 609.73 861.00 581.73 890.00 553.73 C 890.00 553.73 839.00 470.73 792.00 424.73 L 920.00 373.73 C 920.00 373.73 1069.00 335.73 1054.00 256.73 L 1038.00 264.73 C 1038.00 264.73 1079.00 201.23 1038.00 166.73 Z" fill="url(#linear-gradient-17)" fill-rule="nonzero" group-id="1,7" node-id="283" stroke="none" target-height="446" target-width="480.63" target-x="598.37" target-y="163.73"></path><path d="M 198.83 796.33 L 152.14 820.88 L 159.31 908.74 L 59.44 761.20 L 141.57 717.48 L 198.83 796.33 Z" fill="url(#linear-gradient-18)" fill-rule="nonzero" group-id="1,7" node-id="285" stroke="none" target-height="191.26001" target-width="139.39" target-x="59.44" target-y="717.48"></path><path d="M 628.45 781.25 L 577.99 796.64 L 568.60 884.29 L 498.09 720.68 L 586.95 693.10 L 628.45 781.25 Z" fill="url(#linear-gradient-19)" fill-rule="nonzero" group-id="1,7" node-id="287" stroke="none" target-height="191.19" target-width="130.36002" target-x="498.09" target-y="693.1"></path><path d="M 1118.94 181.92 C 1118.94 181.92 1129.94 159.26 1117.25 151.50 C 1112.59 148.64 1098.81 148.57 1096.76 163.29 C 1086.95 169.48 1075.51 172.57 1063.92 172.16 C 1060.37 172.03 1049.05 169.22 1049.05 169.22 C 1049.05 169.22 1050.17 118.47 1100.30 94.96 C 1100.30 94.96 1135.10 74.59 1188.09 145.07 C 1191.71 149.78 1193.88 155.43 1194.35 161.35 C 1194.78 167.82 1193.03 174.86 1183.76 175.99 C 1179.59 176.46 1175.38 175.57 1171.76 173.45 L 1163.29 168.61 L 1163.29 168.61 C 1160.53 174.68 1154.83 178.91 1148.22 179.79 L 1132.22 181.92 L 1126.01 191.68 Z" fill="url(#linear-gradient-20)" fill-rule="nonzero" group-id="1,7" node-id="289" stroke="none" target-height="117.09" target-width="145.72998" target-x="1049.05" target-y="74.59"></path><path d="M 1339.58 193.01 L 1345.59 156.01 L 1348.55 156.49 L 1342.54 193.49 Z" fill="#161c3e" fill-rule="nonzero" group-id="1,7,11" node-id="293" stroke="none" target-height="37.47644" target-width="8.966431" target-x="1339.5828" target-y="156.01196"></path><path d="M 1356.08 189.38 L 1367.08 144.38 L 1369.99 145.10 L 1359.00 190.09 Z" fill="#161c3e" fill-rule="nonzero" group-id="1,7,12" node-id="298" stroke="none" target-height="45.708496" target-width="13.908203" target-x="1356.081" target-y="144.38489"></path><path d="M 1289.31 248.00 L 1286.68 246.56 C 1287.38 245.28 1304.04 215.13 1323.03 199.13 L 1324.96 201.42 C 1306.39 217.00 1289.48 247.64 1289.31 248.00 Z" fill="#161c3e" fill-rule="nonzero" group-id="1,7" node-id="301" stroke="none" target-height="48.869995" target-width="38.279907" target-x="1286.68" target-y="199.13"></path><path d="M 967.00 233.23 C 967.00 233.23 920.00 245.00 866.73 190.79 L 887.50 172.19 C 906.00 195.38 938.00 229.94 967.00 233.23 Z" fill="#000000" fill-opacity="0.2" fill-rule="nonzero" group-id="1,7,13" node-id="305" stroke="none" target-height="72.81" target-width="100.27002" target-x="866.73" target-y="172.19"></path></g></g></svg>